inDegrees=yes
name=ik_S56_A13_T02
DataType=double
version=3
OpenSimVersion=4.3-2021-08-27-4bc7ad9
endheader
time	pelvis_tilt	pelvis_list	pelvis_rotation	pelvis_tx	pelvis_ty	pelvis_tz	hip_flexion_r	hip_adduction_r	hip_rotation_r	knee_angle_r	knee_angle_r_beta	ankle_angle_r	subtalar_angle_r	mtp_angle_r	hip_flexion_l	hip_adduction_l	hip_rotation_l	knee_angle_l	knee_angle_l_beta	ankle_angle_l	subtalar_angle_l	mtp_angle_l	lumbar_extension	lumbar_bending	lumbar_rotation	arm_flex_r	arm_add_r	arm_rot_r	elbow_flex_r	pro_sup_r	wrist_flex_r	wrist_dev_r	arm_flex_l	arm_add_l	arm_rot_l	elbow_flex_l	pro_sup_l	wrist_flex_l	wrist_dev_l
9.699999999999882	-0.6038363774653591	2.039963024988409	28.12259792154019	0	0.9399999999999999	0	33.68401813150883	-9.648403478032696	-9.093480472292242	39.61668945053837	0.6914416696519977	0	0	0	33.68401813150883	-9.648403478032696	-9.093480472292242	39.61668945053837	0.6914416696519977	0	0	0	1.370010131727606	3.07848892473399	11.69841180878517	93.34966143679192	-11.90042036052781	44.69521391425646	44.00388312524395	100.986035070961	0	0	104.7587442965584	-1.122343290830083	31.83374687514227	42.4859005020769	49.02843815235382	0	0
9.719999999999882	-0.6163527900270829	2.056708450091598	27.75717062458751	0	0.9399999999999999	0	33.83577510854972	-9.65938345731985	-9.114559105941854	39.80292844356735	0.6946921532759524	0	0	0	33.83577510854972	-9.65938345731985	-9.114559105941854	39.80292844356735	0.6946921532759524	0	0	0	1.361313233918228	3.11085510483254	12.18136128400707	94.06558889398075	-12.21341748618585	44.70338271233341	43.21516812317763	101.5024782123735	0	0	104.2389090097894	-0.9187415798952194	31.97397989188299	46.00155486495584	38.31481897481826	0	0
9.739999999999881	-0.6253561771385086	2.091538598714899	27.7799501701743	0	0.9399999999999999	0	33.84018492690083	-9.659836980119643	-9.115319063440271	39.80713684032415	0.6947656036555886	0	0	0	33.84018492690083	-9.659836980119643	-9.115319063440271	39.80713684032415	0.6947656036555886	0	0	0	1.365949200625581	3.149918472426664	12.28133293068226	94.56058790351842	-12.34326677565193	44.51823697516695	42.68568131311589	102.9494435671192	0	0	104.0050271369611	-0.898143611343271	31.88663894941593	46.21773104029262	38.36362123514137	0	0
9.759999999999881	-0.6298543371447898	2.088374220611823	27.41670830279935	0	0.9399999999999999	0	33.84772440045088	-9.660620643910777	-9.116627734460691	39.81425216035908	0.6948897894175313	0	0	0	33.84772440045088	-9.660620643910777	-9.116627734460691	39.81425216035908	0.6948897894175313	0	0	0	1.34748015916557	3.163936932947377	12.6879463707984	95.25396955535675	-12.65554537419908	44.20600331295633	42.73126444784641	104.2476903342797	0	0	103.8889572139363	-0.8932831324185826	31.6613712323456	48.20110365221675	33.31567338847966	0	0
9.77999999999988	-0.6411133910011293	2.094905898106603	27.40563733953428	0	0.9399999999999999	0	33.85105844261772	-9.660965906587348	-9.117205153089188	39.8174066903311	0.6949448463518958	0	0	0	33.85105844261772	-9.660965906587348	-9.117205153089188	39.8174066903311	0.6949448463518958	0	0	0	1.335909094461912	3.180303647662969	12.81630832613854	95.7565112064222	-13.20314978361145	44.29075835416964	42.79486932703387	103.9438022821242	0	0	103.9402263337922	-0.8336418130209549	31.11350515372876	48.30169380371333	33.72274007877631	0	0
9.79999999999988	-0.6302974770506161	2.100320849108077	27.24251229268605	0	0.9399999999999999	0	33.85846784315238	-9.66173465685281	-9.11849022165752	39.82439798569214	0.6950668674749254	0	0	0	33.85846784315238	-9.66173465685281	-9.11849022165752	39.82439798569214	0.6950668674749254	0	0	0	1.340019991522216	3.191250647834228	13.04751315384139	96.14399628506391	-13.79831343135652	44.23714853848745	43.23745764775042	106.5673940995725	0	0	104.1142020095769	-0.9284765741979918	31.21295784244373	48.5375502057333	32.43904713225194	0	0
9.819999999999879	-0.6319927183121383	2.098742357574115	27.05665695218812	0	0.9399999999999999	0	33.86502419291095	-9.662412313046151	-9.119624794679535	39.83059898817755	0.6951750953852202	0	0	0	33.86502419291095	-9.662412313046151	-9.119624794679535	39.83059898817755	0.6951750953852202	0	0	0	1.33109815805846	3.199093842106264	13.23217794904014	96.42257096636857	-14.32389343577953	44.10946925630878	44.29853497142808	109.041921299345	0	0	104.1284364480947	-0.9461727542997055	31.18080059936896	48.41122058657346	33.01921841332154	0	0
